<mxfile host="app.diagrams.net" modified="2020-11-24T05:59:26.340Z" agent="5.0 (Windows)" etag="cuWgcAhgbGRbLN78PppN" version="13.10.0" type="github">
  <diagram name="Page-1" id="822b0af5-4adb-64df-f703-e8dfc1f81529">
    <mxGraphModel dx="3049" dy="790" grid="1" gridSize="10" guides="1" tooltips="1" connect="1" arrows="1" fold="1" page="1" pageScale="1" pageWidth="1100" pageHeight="850" background="#ffffff" math="0" shadow="0">
      <root>
        <mxCell id="0" />
        <mxCell id="1" parent="0" />
        <mxCell id="K7k0_T_SSJ15ffRAY8dM-1" value="" style="image;html=1;image=img/lib/clip_art/computers/Server_128x128.png" vertex="1" parent="1">
          <mxGeometry x="780" y="400.5" width="80" height="80" as="geometry" />
        </mxCell>
        <mxCell id="K7k0_T_SSJ15ffRAY8dM-4" value="" style="rounded=1;arcSize=10;dashed=1;strokeColor=#ff0000;fillColor=none;gradientColor=none;dashPattern=8 4;strokeWidth=2;" vertex="1" parent="1">
          <mxGeometry x="680" y="360.5" width="230" height="229.5" as="geometry" />
        </mxCell>
        <mxCell id="K7k0_T_SSJ15ffRAY8dM-6" value="" style="rounded=1;arcSize=10;dashed=1;strokeColor=#ff0000;fillColor=none;gradientColor=none;dashPattern=8 4;strokeWidth=2;" vertex="1" parent="1">
          <mxGeometry x="160" y="90" width="390" height="390" as="geometry" />
        </mxCell>
        <mxCell id="K7k0_T_SSJ15ffRAY8dM-7" value="" style="rounded=1;arcSize=10;dashed=1;strokeColor=#ff0000;fillColor=none;gradientColor=none;dashPattern=8 4;strokeWidth=2;" vertex="1" parent="1">
          <mxGeometry x="170" y="600" width="510" height="260" as="geometry" />
        </mxCell>
        <mxCell id="K7k0_T_SSJ15ffRAY8dM-8" value="DC-测试区" style="text;html=1;align=center;verticalAlign=middle;resizable=0;points=[];autosize=1;" vertex="1" parent="1">
          <mxGeometry x="460" y="96" width="70" height="20" as="geometry" />
        </mxCell>
        <mxCell id="K7k0_T_SSJ15ffRAY8dM-9" value="办公区" style="text;html=1;align=center;verticalAlign=middle;resizable=0;points=[];autosize=1;" vertex="1" parent="1">
          <mxGeometry x="578" y="610" width="50" height="20" as="geometry" />
        </mxCell>
        <mxCell id="K7k0_T_SSJ15ffRAY8dM-10" value="" style="shape=image;html=1;verticalAlign=top;verticalLabelPosition=bottom;labelBackgroundColor=#ffffff;imageAspect=0;aspect=fixed;image=https://cdn4.iconfinder.com/data/icons/REALVISTA/project_managment/png/128/tester.png" vertex="1" parent="1">
          <mxGeometry x="241" y="720.5" width="59" height="59" as="geometry" />
        </mxCell>
        <mxCell id="K7k0_T_SSJ15ffRAY8dM-12" value="" style="image;html=1;image=img/lib/clip_art/networking/Print_Server_128x128.png" vertex="1" parent="1">
          <mxGeometry x="470" y="394" width="80" height="80" as="geometry" />
        </mxCell>
        <mxCell id="K7k0_T_SSJ15ffRAY8dM-18" value="" style="image;html=1;image=img/lib/clip_art/computers/Server_Rack_128x128.png" vertex="1" parent="1">
          <mxGeometry x="207" y="135" width="80" height="80" as="geometry" />
        </mxCell>
        <mxCell id="K7k0_T_SSJ15ffRAY8dM-20" value="" style="image;html=1;image=img/lib/clip_art/networking/Router_Icon_128x128.png" vertex="1" parent="1">
          <mxGeometry x="263" y="440" width="80" height="80" as="geometry" />
        </mxCell>
        <mxCell id="K7k0_T_SSJ15ffRAY8dM-24" value="" style="image;html=1;image=img/lib/clip_art/computers/Server_Rack_128x128.png" vertex="1" parent="1">
          <mxGeometry x="157" y="135" width="80" height="80" as="geometry" />
        </mxCell>
        <mxCell id="K7k0_T_SSJ15ffRAY8dM-25" value="" style="image;html=1;image=img/lib/clip_art/computers/Server_Rack_128x128.png" vertex="1" parent="1">
          <mxGeometry x="257" y="135" width="80" height="80" as="geometry" />
        </mxCell>
        <mxCell id="K7k0_T_SSJ15ffRAY8dM-26" value="" style="image;html=1;image=img/lib/clip_art/computers/Server_Rack_128x128.png" vertex="1" parent="1">
          <mxGeometry x="344.75" y="135" width="80" height="80" as="geometry" />
        </mxCell>
        <mxCell id="K7k0_T_SSJ15ffRAY8dM-27" value="" style="image;html=1;image=img/lib/clip_art/computers/Server_Rack_128x128.png" vertex="1" parent="1">
          <mxGeometry x="301.5" y="135" width="80" height="80" as="geometry" />
        </mxCell>
        <mxCell id="K7k0_T_SSJ15ffRAY8dM-28" value="" style="shape=image;html=1;verticalAlign=top;verticalLabelPosition=bottom;labelBackgroundColor=#ffffff;imageAspect=0;aspect=fixed;image=https://cdn4.iconfinder.com/data/icons/logos-brands-5/24/nginx-128.png" vertex="1" parent="1">
          <mxGeometry x="273.25" y="290" width="59.5" height="59.5" as="geometry" />
        </mxCell>
        <mxCell id="K7k0_T_SSJ15ffRAY8dM-37" value="" style="line;strokeWidth=4;direction=south;html=1;perimeter=backbonePerimeter;points=[];outlineConnect=0;" vertex="1" parent="1">
          <mxGeometry x="295.75" y="500" width="10" height="110" as="geometry" />
        </mxCell>
        <mxCell id="K7k0_T_SSJ15ffRAY8dM-38" value="" style="line;strokeWidth=4;direction=south;html=1;perimeter=backbonePerimeter;points=[];outlineConnect=0;" vertex="1" parent="1">
          <mxGeometry x="296" y="350" width="10" height="100" as="geometry" />
        </mxCell>
        <mxCell id="K7k0_T_SSJ15ffRAY8dM-39" value="" style="line;strokeWidth=4;direction=south;html=1;perimeter=backbonePerimeter;points=[];outlineConnect=0;" vertex="1" parent="1">
          <mxGeometry x="298.75" y="214" width="10" height="80" as="geometry" />
        </mxCell>
        <mxCell id="K7k0_T_SSJ15ffRAY8dM-40" value="" style="line;strokeWidth=4;html=1;perimeter=backbonePerimeter;points=[];outlineConnect=0;rotation=-10;" vertex="1" parent="1">
          <mxGeometry x="340.99" y="446.1" width="138.5" height="10" as="geometry" />
        </mxCell>
        <mxCell id="K7k0_T_SSJ15ffRAY8dM-41" value="" style="line;strokeWidth=4;html=1;perimeter=backbonePerimeter;points=[];outlineConnect=0;" vertex="1" parent="1">
          <mxGeometry x="550" y="429" width="234" height="10" as="geometry" />
        </mxCell>
        <mxCell id="K7k0_T_SSJ15ffRAY8dM-42" value="Test Server" style="text;html=1;align=center;verticalAlign=middle;resizable=0;points=[];autosize=1;" vertex="1" parent="1">
          <mxGeometry x="-220" y="50" width="70" height="20" as="geometry" />
        </mxCell>
        <mxCell id="K7k0_T_SSJ15ffRAY8dM-43" value="Test Server" style="text;html=1;align=center;verticalAlign=middle;resizable=0;points=[];autosize=1;" vertex="1" parent="1">
          <mxGeometry x="260" y="107" width="70" height="20" as="geometry" />
        </mxCell>
        <mxCell id="K7k0_T_SSJ15ffRAY8dM-44" value="镜像流量" style="text;html=1;align=center;verticalAlign=middle;resizable=0;points=[];autosize=1;" vertex="1" parent="1">
          <mxGeometry x="365.69" y="430.5" width="60" height="20" as="geometry" />
        </mxCell>
        <mxCell id="K7k0_T_SSJ15ffRAY8dM-46" value="流量接收设备" style="text;html=1;align=center;verticalAlign=middle;resizable=0;points=[];autosize=1;" vertex="1" parent="1">
          <mxGeometry x="449.88" y="392" width="90" height="20" as="geometry" />
        </mxCell>
        <mxCell id="K7k0_T_SSJ15ffRAY8dM-47" value="IAST" style="text;html=1;align=center;verticalAlign=middle;resizable=0;points=[];autosize=1;" vertex="1" parent="1">
          <mxGeometry x="790" y="392" width="40" height="20" as="geometry" />
        </mxCell>
        <mxCell id="K7k0_T_SSJ15ffRAY8dM-48" value="" style="shape=partialRectangle;whiteSpace=wrap;html=1;bottom=1;right=1;left=1;top=0;fillColor=none;routingCenterX=-0.5;rotation=-180;" vertex="1" parent="1">
          <mxGeometry x="265" y="610" width="120" height="60" as="geometry" />
        </mxCell>
        <mxCell id="K7k0_T_SSJ15ffRAY8dM-50" value="" style="shape=partialRectangle;whiteSpace=wrap;html=1;bottom=1;right=1;left=1;top=0;fillColor=none;routingCenterX=-0.5;rotation=-180;" vertex="1" parent="1">
          <mxGeometry x="332.75" y="610" width="120" height="60" as="geometry" />
        </mxCell>
        <mxCell id="K7k0_T_SSJ15ffRAY8dM-51" value="" style="shape=image;html=1;verticalAlign=top;verticalLabelPosition=bottom;labelBackgroundColor=#ffffff;imageAspect=0;aspect=fixed;image=https://cdn4.iconfinder.com/data/icons/REALVISTA/project_managment/png/128/tester.png" vertex="1" parent="1">
          <mxGeometry x="308" y="722.5" width="59" height="59" as="geometry" />
        </mxCell>
        <mxCell id="K7k0_T_SSJ15ffRAY8dM-53" value="" style="shape=image;html=1;verticalAlign=top;verticalLabelPosition=bottom;labelBackgroundColor=#ffffff;imageAspect=0;aspect=fixed;image=https://cdn4.iconfinder.com/data/icons/REALVISTA/project_managment/png/128/tester.png" vertex="1" parent="1">
          <mxGeometry x="360" y="723.5" width="59" height="59" as="geometry" />
        </mxCell>
        <mxCell id="K7k0_T_SSJ15ffRAY8dM-55" value="" style="shape=image;html=1;verticalAlign=top;verticalLabelPosition=bottom;labelBackgroundColor=#ffffff;imageAspect=0;aspect=fixed;image=https://cdn4.iconfinder.com/data/icons/REALVISTA/project_managment/png/128/tester.png" vertex="1" parent="1">
          <mxGeometry x="432" y="724.5" width="59" height="59" as="geometry" />
        </mxCell>
        <mxCell id="K7k0_T_SSJ15ffRAY8dM-58" value="" style="shape=mxgraph.signs.tech.computer;html=1;pointerEvents=1;fillColor=#000000;strokeColor=none;verticalLabelPosition=bottom;verticalAlign=top;align=center;" vertex="1" parent="1">
          <mxGeometry x="236.5" y="671" width="58" height="50" as="geometry" />
        </mxCell>
        <mxCell id="K7k0_T_SSJ15ffRAY8dM-59" value="" style="shape=mxgraph.signs.tech.computer;html=1;pointerEvents=1;fillColor=#000000;strokeColor=none;verticalLabelPosition=bottom;verticalAlign=top;align=center;" vertex="1" parent="1">
          <mxGeometry x="303.5" y="670" width="58" height="50" as="geometry" />
        </mxCell>
        <mxCell id="K7k0_T_SSJ15ffRAY8dM-60" value="" style="shape=mxgraph.signs.tech.computer;html=1;pointerEvents=1;fillColor=#000000;strokeColor=none;verticalLabelPosition=bottom;verticalAlign=top;align=center;" vertex="1" parent="1">
          <mxGeometry x="365.69" y="670" width="58" height="50" as="geometry" />
        </mxCell>
        <mxCell id="K7k0_T_SSJ15ffRAY8dM-61" value="" style="shape=mxgraph.signs.tech.computer;html=1;pointerEvents=1;fillColor=#000000;strokeColor=none;verticalLabelPosition=bottom;verticalAlign=top;align=center;" vertex="1" parent="1">
          <mxGeometry x="433" y="670" width="58" height="50" as="geometry" />
        </mxCell>
        <mxCell id="K7k0_T_SSJ15ffRAY8dM-62" value="" style="pointerEvents=1;shadow=0;dashed=0;html=1;strokeColor=none;fillColor=#505050;labelPosition=center;verticalLabelPosition=bottom;verticalAlign=top;outlineConnect=0;align=center;shape=mxgraph.office.devices.mac_client;" vertex="1" parent="1">
          <mxGeometry x="570" y="670" width="58" height="48" as="geometry" />
        </mxCell>
        <mxCell id="K7k0_T_SSJ15ffRAY8dM-63" value="" style="aspect=fixed;html=1;points=[];align=center;image;fontSize=12;image=img/lib/azure2/management_governance/User_Privacy.svg;" vertex="1" parent="1">
          <mxGeometry x="572" y="730" width="54" height="57.38" as="geometry" />
        </mxCell>
        <mxCell id="K7k0_T_SSJ15ffRAY8dM-65" value="" style="line;strokeWidth=4;html=1;perimeter=backbonePerimeter;points=[];outlineConnect=0;rotation=-50;" vertex="1" parent="1">
          <mxGeometry x="579.86" y="562.62" width="272.08" height="10" as="geometry" />
        </mxCell>
        <mxCell id="K7k0_T_SSJ15ffRAY8dM-69" value="" style="shape=mxgraph.mockup.markup.redX;fillColor=#ff0000;html=1;shadow=0;strokeColor=none;rotation=-225;direction=south;" vertex="1" parent="1">
          <mxGeometry x="237" y="184" width="30" height="30" as="geometry" />
        </mxCell>
        <mxCell id="K7k0_T_SSJ15ffRAY8dM-70" value="" style="shape=mxgraph.mockup.markup.redX;fillColor=#ff0000;html=1;shadow=0;strokeColor=none;rotation=90;" vertex="1" parent="1">
          <mxGeometry x="237" y="182" width="30" height="32" as="geometry" />
        </mxCell>
        <mxCell id="K7k0_T_SSJ15ffRAY8dM-71" value="" style="shape=mxgraph.mockup.markup.redX;fillColor=#ff0000;html=1;shadow=0;strokeColor=none;rotation=-225;direction=south;" vertex="1" parent="1">
          <mxGeometry x="180" y="184" width="30" height="30" as="geometry" />
        </mxCell>
        <mxCell id="K7k0_T_SSJ15ffRAY8dM-72" value="" style="shape=mxgraph.mockup.markup.redX;fillColor=#ff0000;html=1;shadow=0;strokeColor=none;rotation=90;" vertex="1" parent="1">
          <mxGeometry x="180" y="182" width="30" height="32" as="geometry" />
        </mxCell>
        <mxCell id="K7k0_T_SSJ15ffRAY8dM-73" value="" style="shape=mxgraph.mockup.markup.redX;fillColor=#ff0000;html=1;shadow=0;strokeColor=none;rotation=-225;direction=south;" vertex="1" parent="1">
          <mxGeometry x="180" y="184" width="30" height="30" as="geometry" />
        </mxCell>
        <mxCell id="K7k0_T_SSJ15ffRAY8dM-74" value="" style="shape=mxgraph.mockup.markup.redX;fillColor=#ff0000;html=1;shadow=0;strokeColor=none;rotation=-225;direction=south;" vertex="1" parent="1">
          <mxGeometry x="287" y="184" width="30" height="30" as="geometry" />
        </mxCell>
        <mxCell id="K7k0_T_SSJ15ffRAY8dM-75" value="" style="shape=mxgraph.mockup.markup.redX;fillColor=#ff0000;html=1;shadow=0;strokeColor=none;rotation=90;" vertex="1" parent="1">
          <mxGeometry x="287" y="182" width="30" height="32" as="geometry" />
        </mxCell>
        <mxCell id="K7k0_T_SSJ15ffRAY8dM-76" value="" style="image;html=1;image=img/lib/clip_art/computers/Server_Rack_128x128.png" vertex="1" parent="1">
          <mxGeometry x="381.5" y="135" width="90" height="80" as="geometry" />
        </mxCell>
        <mxCell id="K7k0_T_SSJ15ffRAY8dM-77" value="IDC-数北" style="text;html=1;align=center;verticalAlign=middle;resizable=0;points=[];autosize=1;" vertex="1" parent="1">
          <mxGeometry x="840" y="557.89" width="60" height="20" as="geometry" />
        </mxCell>
        <mxCell id="K7k0_T_SSJ15ffRAY8dM-78" value="Tester" style="text;html=1;align=center;verticalAlign=middle;resizable=0;points=[];autosize=1;" vertex="1" parent="1">
          <mxGeometry x="246.75" y="781.5" width="50" height="20" as="geometry" />
        </mxCell>
        <mxCell id="K7k0_T_SSJ15ffRAY8dM-79" value="Tester" style="text;html=1;align=center;verticalAlign=middle;resizable=0;points=[];autosize=1;" vertex="1" parent="1">
          <mxGeometry x="308.75" y="781.5" width="50" height="20" as="geometry" />
        </mxCell>
        <mxCell id="K7k0_T_SSJ15ffRAY8dM-80" value="Tester" style="text;html=1;align=center;verticalAlign=middle;resizable=0;points=[];autosize=1;" vertex="1" parent="1">
          <mxGeometry x="361.5" y="781.5" width="50" height="20" as="geometry" />
        </mxCell>
        <mxCell id="K7k0_T_SSJ15ffRAY8dM-83" value="Tester" style="text;html=1;align=center;verticalAlign=middle;resizable=0;points=[];autosize=1;" vertex="1" parent="1">
          <mxGeometry x="436.5" y="783.5" width="50" height="20" as="geometry" />
        </mxCell>
        <mxCell id="K7k0_T_SSJ15ffRAY8dM-85" value="SecTeser" style="text;html=1;align=center;verticalAlign=middle;resizable=0;points=[];autosize=1;" vertex="1" parent="1">
          <mxGeometry x="558" y="790" width="70" height="20" as="geometry" />
        </mxCell>
      </root>
    </mxGraphModel>
  </diagram>
</mxfile>
